<?xml version="1.0" encoding="UTF-8"?>
<svg width="38px" height="38px" viewBox="0 0 38 38" version="1.1" xmlns="http://www.w3.org/2000/svg" xmlns:xlink="http://www.w3.org/1999/xlink">
    <!-- Generator: Sketch 55.1 (78136) - https://sketchapp.com -->
    <desc>Created with Sketch.</desc>
    <g id="Responsive" stroke="none" stroke-width="1" fill="none" fill-rule="evenodd">
        <path d="M18.9993357,9.98983931 C18.7941513,9.98983931 18.5973817,9.90829905 18.4523657,9.76317822 C18.3073497,9.6180574 18.225982,9.42125901 18.2261833,9.21612804 C18.2261833,8.90312206 18.4148239,8.62095103 18.7041084,8.50123995 C18.993393,8.38152888 19.326326,8.44786372 19.5476034,8.6693011 C19.7688808,8.89073848 19.8349057,9.22364992 19.7148792,9.51274139 C19.5948527,9.80183287 19.312423,9.99014641 18.9993357,9.98983931 Z M18.9993357,7.17544692 C18.7937551,7.17544692 18.5966386,7.09359529 18.4515568,6.94798069 C18.3064749,6.8023661 18.2253751,6.60498111 18.2261777,6.39945556 C18.2274429,5.97234703 18.5746452,5.62704866 19.0018656,5.62802508 C19.429086,5.62900564 19.7747021,5.97589081 19.7740049,6.40300062 C19.7733055,6.83011043 19.4265571,7.17586425 18.9993357,7.17544692 Z M20.2141803,3.58734326 C20.2141803,4.01448032 19.8773992,4.36105416 19.633366,4.36105416 L18.3645452,4.36105416 C18.120512,4.36105416 17.7837309,4.01372029 17.7837309,3.58734326 C17.7837309,3.16096623 18.120512,2.81439239 18.3645452,2.81439239 L19.633366,2.81439239 C19.8773992,2.81439239 20.2141803,3.16096623 20.2141803,3.58734326 Z M15.7394775,3.13132505 C15.9759084,3.0750828 16.3879521,3.32589282 16.4890624,3.74010936 C16.5901728,4.1543259 16.3453793,4.57082253 16.1089483,4.62934487 L14.8773787,4.93335701 C14.6401876,4.99491947 14.2289041,4.7403093 14.1277938,4.32533273 C14.0266835,3.91035616 14.2707167,3.49385952 14.5079079,3.43533719 L15.7394775,3.13132505 Z M10.9112685,4.96451825 L12.0348857,4.3747347 C12.2507905,4.25769003 12.7076876,4.41197619 12.9083879,4.78971127 C13.1090881,5.16744636 12.972247,5.63030484 12.7563422,5.74354936 L11.632725,6.33333292 C11.4168202,6.44657744 10.9599231,6.29761149 10.7592229,5.91911638 C10.5585227,5.54062126 10.6953637,5.07776278 10.9112685,4.96451825 Z M7.86427413,8.27141031 C7.58070903,7.95219757 7.60351587,7.46957829 7.78597063,7.31149198 L8.73777626,6.46709826 C8.92023102,6.30521179 9.40373612,6.34017319 9.68502053,6.66014597 C9.96630494,6.98011875 9.9434981,7.46197799 9.76104334,7.62386445 L8.81151839,8.46521805 C8.62906364,8.62710452 8.14783922,8.59138309 7.86427413,8.27141031 Z M5.61856019,11.2484492 C5.26733479,11.0059995 5.17382673,10.5325006 5.31446893,10.3318526 L6.03516521,9.28757089 C6.17352674,9.08692288 6.65247047,9.00635966 7.00141518,9.24880934 C7.3503599,9.49125903 7.44386796,9.96475794 7.30550644,10.1654059 L6.58557039,11.2096877 C6.44644864,11.4103357 5.97054582,11.4908989 5.61856019,11.2484492 Z M4.15360056,14.6761861 C3.7522001,14.52494 3.54541805,14.0871626 3.63588519,13.8591535 L4.08518003,12.6735061 C4.17184604,12.444737 4.61505904,12.2524493 5.01417882,12.4036953 C5.41329859,12.5549414 5.61779996,12.9927189 5.53189418,13.220728 L5.08183912,14.4071353 C4.99593334,14.6351444 4.55272034,14.8281922 4.15360056,14.6761861 Z M3.00261515,16.426536 C3.03150382,16.1848463 3.4146588,15.8922346 3.83886611,15.9431567 C4.26307341,15.9940787 4.56640444,16.3702937 4.53675554,16.6127434 L4.38470992,17.8713537 C4.35658147,18.1138034 3.97190603,18.405655 3.54845896,18.354733 C3.12501188,18.3038109 2.82168085,17.9275959 2.85056952,17.6859063 L3.00261515,16.426536 Z M3.84266725,22.0712814 C3.41845995,22.1229635 3.03454473,21.8280717 3.00641629,21.5886621 L2.85437066,20.3300519 C2.82472177,20.0876022 3.12881302,19.7091071 3.55149987,19.6597051 C3.97418672,19.6103031 4.35810193,19.9006347 4.38775083,20.1423244 L4.53979646,21.4016947 C4.56944535,21.6433843 4.26687455,22.0195993 3.84266725,22.0712814 Z M4.0897414,25.340932 L3.63892611,24.1552846 C3.5522601,23.9272755 3.75904215,23.489498 4.15588124,23.338252 C4.55272034,23.187006 4.99821403,23.3785336 5.08488004,23.6065427 L5.5349351,24.7921901 C5.6216011,25.0201992 5.41557928,25.4572166 5.01874019,25.6092227 C4.6219011,25.7612288 4.1764074,25.5689411 4.0897414,25.340932 Z M7.00749701,28.7633486 C6.65627161,29.0057983 6.17960856,28.9259951 6.04124704,28.7253471 L5.31979053,27.6818255 C5.17990855,27.4811774 5.27189616,27.0069185 5.62388179,26.7644688 C5.97586742,26.5220191 6.45177024,26.6018223 6.59089199,26.8024703 L7.31158827,27.845992 C7.45223047,28.04664 7.35872241,28.5201389 7.00749701,28.7633486 Z M9.69338304,31.3489719 C9.41057817,31.6689447 8.92859353,31.7084663 8.74613877,31.5435397 L7.79585359,30.7029461 C7.61187838,30.5418197 7.58907154,30.0592004 7.87187641,29.7392276 C8.15468128,29.4192548 8.63666592,29.3835334 8.81912067,29.5446598 L9.76940585,30.3852534 C9.95414129,30.5471399 9.97694814,31.0289991 9.69338304,31.3489719 Z M12.765465,32.2625284 C12.9813698,32.3757729 13.1182108,32.8386314 12.9205515,33.2171265 C12.7228922,33.5956216 12.2637144,33.7453476 12.0478096,33.6321031 L10.9241924,33.0438396 C10.7075274,32.9305951 10.5699261,32.4684966 10.7683456,32.0900015 C10.9667652,31.7115064 11.425943,31.5610204 11.6418478,31.6742649 L12.765465,32.2625284 Z M16.1226324,33.3691326 C16.3590634,33.4276549 16.6038569,33.8433915 16.5019863,34.2583681 C16.4001157,34.6733447 15.9903527,34.9287149 15.7531616,34.8709525 L14.521592,34.5669404 C14.2844008,34.5084181 14.0396073,34.0911614 14.1414779,33.6769449 C14.2433485,33.2627283 14.6531114,33.0065981 14.8903026,33.0651204 L16.1226324,33.3691326 Z M18.3789896,35.1871252 C18.1349563,35.1871252 17.797415,34.8413114 17.797415,34.4141743 C17.797415,33.9870372 18.1334359,33.6404634 18.3774691,33.6404634 L19.6462899,33.6404634 C19.8903231,33.6404634 20.2278644,33.9870372 20.2278644,34.4134143 C20.2278644,34.8397913 19.8918436,35.1871252 19.6478103,35.1871252 L18.3789896,35.1871252 Z M22.2728781,34.8648723 C22.0356869,34.9233946 21.6236433,34.6710646 21.5232932,34.256848 C21.4229431,33.8426315 21.6669763,33.4253748 21.9034072,33.3668525 L23.1349768,33.0628403 C23.372168,33.0012779 23.7842117,33.2558881 23.8845618,33.6708646 C23.9849119,34.0858412 23.7408787,34.5023378 23.5044477,34.5608602 L22.2728781,34.8648723 Z M27.0988064,33.029399 L25.9751892,33.6199426 C25.7600446,33.7339471 25.3023873,33.5842212 25.101687,33.2064861 C24.9009868,32.828751 25.0378279,32.3651325 25.2537327,32.251888 L26.3765896,31.6613444 C26.5924944,31.5480999 27.0501518,31.6978258 27.250852,32.0755609 C27.4515522,32.453296 27.3147112,32.9161545 27.0988064,33.029399 Z M30.1435201,29.7202269 C30.4270852,30.0363995 30.4050386,30.5212988 30.2195429,30.6831853 L29.2707782,31.5252989 C29.0883234,31.6871854 28.6040581,31.652224 28.3235339,31.3330113 C28.0430097,31.0137985 28.0650563,30.5311792 28.2475111,30.3692928 L29.1955156,29.5271791 C29.3779703,29.3652927 29.859955,29.4002541 30.1435201,29.7202269 Z M32.3861931,26.7409079 C32.7381787,26.9833576 32.8316868,27.4568565 32.6902844,27.6575045 L31.9711085,28.7025462 C31.832747,28.9031942 31.3538033,28.9837574 31.0048586,28.7420678 C30.6559139,28.5003781 30.5624058,28.0261192 30.7007673,27.8254712 L31.4199431,26.7811895 C31.5583047,26.5797814 32.0342075,26.4992182 32.3861931,26.7409079 Z M32.9913347,25.5849017 C32.5914547,25.4344157 32.3869533,24.9966382 32.4736193,24.7686291 L32.9213937,23.5822217 C33.0080597,23.3542126 33.4512727,23.1611649 33.8503925,23.312411 C34.2495123,23.463657 34.4547739,23.9006745 34.3681079,24.1286836 L33.9203335,25.3150909 C33.8336675,25.5431 33.3904545,25.7369078 32.9913347,25.5849017 Z M34.998337,21.560541 C34.9686881,21.8029907 34.5862934,22.0956024 34.1620861,22.0446803 C33.7378787,21.9937583 33.4345477,21.6183033 33.4634364,21.3766137 L33.615482,20.1172434 C33.6436105,19.8747937 34.0275257,19.582182 34.451733,19.633104 C34.8759403,19.6840261 35.1792713,20.0594811 35.1503826,20.3011707 L34.998337,21.560541 Z M33.4565943,16.5838623 C33.4269454,16.3452127 33.7310367,15.9636775 34.1529633,15.9135155 C34.5748899,15.8633535 34.9595654,16.1536851 34.9892143,16.3953747 L35.1412599,17.653985 C35.1709088,17.8964347 34.8668175,18.2756898 34.4448909,18.3250918 C34.0229643,18.3744938 33.6382889,18.0849222 33.60864,17.8424725 L33.4565943,16.5838623 Z M33.9036085,12.646905 L34.355184,13.8325524 C34.44185,14.0598015 34.2365884,14.499099 33.8389891,14.6503451 C33.4413898,14.8015911 32.9966563,14.6108235 32.9092301,14.3828144 L32.4584148,13.197167 C32.3709885,12.9691579 32.5762501,12.5313804 32.9738495,12.3793744 C33.3714488,12.2273683 33.8169425,12.4188959 33.9036085,12.646905 Z M30.9820517,9.22752849 C31.3332771,8.98355875 31.8099402,9.06412197 31.9483017,9.26476998 L32.6705184,10.3075316 C32.8104004,10.5081796 32.7176526,10.9816785 32.3664272,11.2248883 C32.0152018,11.468098 31.539299,11.3882948 31.4001772,11.1876468 L30.6779605,10.1448851 C30.5380785,9.94423712 30.6315866,9.47073821 30.9820517,9.22752849 Z M28.293885,6.64418533 C28.5766899,6.32345252 29.0579143,6.2877311 29.2411293,6.44885753 L30.1921747,7.28565095 C30.3753897,7.44677738 30.3989567,7.92939665 30.1161519,8.24936943 C29.833347,8.56934221 29.3513624,8.60582367 29.1689076,8.4439372 L28.2178622,7.60790382 C28.0346472,7.44601735 28.0110801,6.96415811 28.293885,6.64418533 Z M25.2210429,5.73290894 C25.0051381,5.61966442 24.8675368,5.16060609 25.0651961,4.78211097 C25.2628554,4.40361586 25.721273,4.25312985 25.937938,4.36561434 L27.0623154,4.9531178 C27.2782202,5.06636232 27.4158215,5.52922081 27.2181622,5.90771592 C27.0205029,6.28621104 26.5620853,6.43669704 26.3454203,6.32345252 L25.2210429,5.73290894 Z M21.8669163,4.62934487 C21.6266842,4.57538271 21.3841714,4.15584596 21.486042,3.74086939 C21.5879126,3.32589282 21.9969153,3.06976259 22.2341065,3.1275249 L23.4664363,3.43153704 C23.7036275,3.48929934 23.9476607,3.90655601 23.8465504,4.32077255 C23.74544,4.73498909 23.3356771,4.99111932 23.0984859,4.93335701 L21.8669163,4.62934487 Z M17.9228527,1.54666176 C17.6788195,1.54666176 17.3420384,1.20084796 17.3420384,0.773710898 C17.3420384,0.34657384 17.6788195,-1.13242749e-14 17.9228527,-1.13242749e-14 L20.0750586,-1.13242749e-14 C20.3190918,-1.13242749e-14 20.6558729,0.347333871 20.6558729,0.773710898 C20.6558729,1.20008792 20.3190918,1.54666176 20.0750586,1.54666176 L17.9228527,1.54666176 Z M13.7750479,2.3112523 C13.538617,2.3712947 13.1273336,2.11516447 13.0262232,1.7001879 C12.9251129,1.28521132 13.1691461,0.868714692 13.4063373,0.810192354 L15.4962045,0.294891776 C15.7326354,0.23712947 16.1446791,0.491739637 16.2450292,0.906716209 C16.3453793,1.32169278 16.1013461,1.73818941 15.8649151,1.79671175 L13.7750479,2.3112523 Z M9.93133445,4.04716162 C9.71466943,4.16040614 9.26157345,4.00764004 9.060113,3.62990496 C8.85865254,3.25216987 8.99625383,2.78931139 9.21215862,2.67530684 L11.1157699,1.67814702 C11.3316747,1.56034231 11.7878116,1.71462847 11.989272,2.09236356 C12.1907325,2.47009864 12.0531312,2.93371716 11.8372264,3.04696168 L9.93133445,4.04716162 Z M6.61369883,6.65178563 C6.43428499,6.8136721 5.94545829,6.7787107 5.66417388,6.45873793 C5.38288947,6.13876515 5.40569631,5.6569059 5.58815107,5.49501944 L7.20059496,4.06768244 C7.38380994,3.90579598 7.86731504,3.94227743 8.14859945,4.26149018 C8.42988387,4.58070293 8.40707702,5.0633222 8.22462227,5.22520867 L6.61369883,6.65178563 Z M3.05126975,10.0141599 C2.69928412,9.77171023 2.60577606,9.29745129 2.74641827,9.09680327 L3.96810489,7.32593256 C4.10722664,7.12528454 4.58617037,7.04472133 4.93511509,7.28717101 C5.28405981,7.52962069 5.37756787,8.0031196 5.23920635,8.20376761 L4.01751972,9.97463833 C3.87839797,10.1760464 3.40249515,10.2566096 3.05126975,10.0141599 Z M1.36280305,14.0917227 C0.960642359,13.9404767 0.759181901,13.5034593 0.847368366,13.2754501 L1.60759651,11.2636498 C1.69426252,11.0356407 2.13443461,10.842593 2.53431462,10.993839 C2.93419462,11.1450851 3.13869599,11.5828626 3.05202998,11.8108717 L2.29180184,13.822672 C2.20513583,14.0506811 1.76192282,14.2437288 1.36280305,14.0917227 Z M0.699884106,18.455057 C0.27643703,18.4079351 -0.0276542271,18.0279199 0.00199467049,17.7862303 L0.260472239,15.649785 C0.28860068,15.4080953 0.672515893,15.1147236 1.0967232,15.1664057 C1.5209305,15.2180877 1.82426153,15.5935427 1.79461263,15.8359924 L1.53613506,17.9716777 C1.50800662,18.2141274 1.12409141,18.5067391 0.699884106,18.455057 Z M1.10128457,22.8503125 C0.67783749,22.9019946 0.293162049,22.6093829 0.263513152,22.3676932 L0.00351512678,20.232008 C-0.0276542271,19.9895583 0.279477943,19.6103031 0.70216479,19.5616612 C1.12485164,19.5130192 1.50876685,19.8025908 1.53841575,20.0450405 L1.799174,22.1807258 C1.8288229,22.4224154 1.52549187,22.7986304 1.10128457,22.8503125 Z M3.06039249,26.2043265 C3.1470585,26.4323356 2.94407758,26.869353 2.54723849,27.0213591 C2.1503994,27.1733651 1.70490571,26.9818375 1.6182397,26.7538284 L0.854210419,24.7420281 C0.767544411,24.514019 0.974326466,24.0770015 1.37116556,23.9249954 C1.76800465,23.7729894 2.21349834,23.965277 2.30016435,24.1932861 L3.06039249,26.2043265 Z M4.025122,28.0397997 L5.24832909,29.8091504 C5.38897129,30.0097984 5.29546323,30.4840574 4.94423783,30.726507 C4.59301243,30.9689567 4.11710961,30.8891535 3.97798786,30.6885055 L2.75478078,28.9183948 C2.61413857,28.7177468 2.70764663,28.2434879 3.05887203,28.0010382 C3.41009744,27.7585885 3.88676048,27.8391517 4.025122,28.0397997 Z M6.62510225,31.3603724 L8.23602569,32.7861893 C8.4200009,32.9473157 8.44280774,33.429175 8.16000287,33.7491477 C7.87719801,34.0691205 7.39521336,34.105602 7.21275861,33.9437155 L5.60107494,32.5178986 C5.41709973,32.3567721 5.39353266,31.8733928 5.67709776,31.5541801 C5.96066286,31.2349673 6.44188727,31.1984859 6.62510225,31.3603724 Z M11.8501503,34.9606361 C12.0668153,35.0738807 12.2006155,35.5374992 12.0021959,35.9152342 C11.8037764,36.2929693 11.3445986,36.4434553 11.1286938,36.3302108 L9.22280182,35.3315309 C9.00993794,35.2190464 8.87233664,34.756188 9.07075619,34.3776928 C9.26917574,33.9991977 9.72759331,33.8487117 9.94425833,33.9619562 L11.8501503,34.9606361 Z M15.8793594,36.2078459 C16.1165506,36.2686484 16.3621043,36.6904652 16.2602337,37.1008816 C16.1583632,37.511298 15.7486002,37.7674282 15.511409,37.7089059 L13.4215419,37.1958854 C13.1835904,37.1373631 12.9395572,36.7216265 13.0414278,36.3066499 C13.1432984,35.8916733 13.5530613,35.6363031 13.7894923,35.6940654 L15.8793594,36.2078459 Z M20.0902631,36.4540945 C20.3342964,36.4533357 20.6718377,36.7991495 20.6718377,37.2262866 C20.6718377,37.6534237 20.3358168,37.9999988 20.0917836,37.9999988 L17.9395777,37.9999988 C17.6955445,38.0007575 17.3580032,37.6549437 17.3580032,37.2278067 C17.3580032,36.8006696 17.6947842,36.4540945 17.9380573,36.4540945 L20.0902631,36.4540945 Z M24.2380679,35.6849451 C24.4744988,35.6264227 24.8873027,35.8779928 24.9876528,36.2929693 C25.0880029,36.7079459 24.8447299,37.1244425 24.6075388,37.1829649 L22.5184318,37.6997855 C22.2820009,37.761348 21.8699572,37.5059778 21.7688469,37.0917612 C21.6677365,36.6775447 21.9117698,36.260288 22.1489609,36.2017657 L24.2380679,35.6849451 Z M28.0802609,33.9467556 C28.2961657,33.8365512 28.7545833,33.9824771 28.9545233,34.3602122 C29.1544633,34.7379472 29.0183824,35.2015657 28.8024776,35.3148103 L26.8973459,36.3165303 C26.6814411,36.4297748 26.224544,36.2815689 26.0238438,35.9030738 C25.8231436,35.5245786 25.9599846,35.0617202 26.1758894,34.9484756 L28.0802609,33.9467556 Z M31.3948556,31.3383315 C31.5773104,31.176445 32.0623359,31.2121664 32.3428601,31.5313792 C32.6233843,31.8505919 32.6013377,32.3324512 32.4188829,32.4950977 L30.8094799,33.9231947 C30.6270252,34.0850812 30.1412394,34.0508798 29.8614754,33.730907 C29.5817115,33.4109342 29.6029979,32.929075 29.7854526,32.7671885 L31.3948556,31.3383315 Z M34.955004,27.9736771 C35.3069896,28.2123266 35.3989772,28.6888657 35.2598555,28.8902737 L34.0389291,30.6619045 C33.9005676,30.8633125 33.4208636,30.9446358 33.0726791,30.7021861 C32.7244946,30.4597364 32.6302263,29.9862375 32.7685879,29.7855895 L33.988754,28.0131987 C34.1271156,27.8125507 34.6037786,27.7312274 34.955004,27.9736771 Z M36.6396696,23.8938342 C37.0395496,24.0450802 37.2440509,24.4820977 37.1581452,24.7101068 L36.397917,26.7226672 C36.3120112,26.9514363 35.868038,27.144484 35.4689182,26.993238 C35.0697985,26.8419919 34.8652971,26.4042144 34.9512029,26.1762053 L35.711431,24.163645 C35.7973368,23.9356359 36.2405498,23.7418281 36.6396696,23.8938342 Z M37.2995476,19.5297399 C37.7222344,19.5806619 38.0263257,19.956877 37.9981973,20.1985666 L37.7412402,22.3350119 C37.7131117,22.5767016 37.3291965,22.8700733 36.9049892,22.8191513 C36.4807819,22.7682292 36.1774509,22.3927742 36.2063395,22.1503246 L36.4632966,20.0138792 C36.4914251,19.7721896 36.8753403,19.4788179 37.2995476,19.5297399 Z M36.8935858,15.1352444 C37.3170328,15.0835624 37.7017083,15.375414 37.7290765,15.6171037 L37.9913552,17.7527889 C38.0210041,17.9944786 37.7169129,18.3729737 37.2949862,18.4231357 C36.8730596,18.4732977 36.4883842,18.1829661 36.4587353,17.9412765 L36.1964566,15.8055912 C36.1668077,15.5639015 36.4693785,15.1876865 36.8935858,15.1352444 Z M34.9314369,11.7827505 C34.8447709,11.5547414 35.0507928,11.1169639 35.4476318,10.9649579 C35.8444709,10.8129518 36.2899646,11.0044795 36.3766306,11.2324886 L37.1429406,13.2435289 C37.2296066,13.4707779 37.0235848,13.9093155 36.6267457,14.0613215 C36.2299066,14.2133276 35.7844129,14.0218 35.6977469,13.7937908 L34.9314369,11.7827505 Z M33.965187,9.9487973 L32.7396992,8.18020667 C32.5998172,7.97955866 32.6925651,7.50605975 33.0437905,7.26285004 C33.3950159,7.01964032 33.8709187,7.09944351 34.0100404,7.29933149 L35.2355282,9.06868215 C35.3754102,9.26933016 35.2826623,9.74282907 34.9314369,9.98603879 C34.5802115,10.2292485 34.1043087,10.1494453 33.965187,9.9487973 Z M31.362926,6.62746466 L29.7504821,5.20316778 C29.5665069,5.04128132 29.5437001,4.55942208 29.826505,4.2394493 C30.1093098,3.91947652 30.5905342,3.88223503 30.772989,4.0441215 L32.3861931,5.46841838 C32.5694081,5.62954481 32.5929752,6.11216408 32.3101703,6.43213686 C32.0273654,6.75210964 31.5453808,6.7885911 31.362926,6.62746466 Z M26.1340769,3.03404116 C25.9181721,2.92155667 25.7790503,2.45869819 25.9774699,2.08020307 C26.1758894,1.70170796 26.634307,1.55122195 26.8502118,1.66370644 L28.7576242,2.66086626 C28.9742892,2.77411078 29.1118905,3.23620924 28.9142312,3.61470435 C28.7165719,3.99319947 28.2573941,4.14444551 28.0414893,4.03120098 L26.1340769,3.03404116 Z M22.1033472,1.79063151 C21.8669163,1.7328692 21.6251637,1.3171326 21.7270343,0.902156027 C21.8289049,0.487179455 22.2379076,0.231049227 22.4750988,0.288811533 L24.5619251,0.80031196 C24.798356,0.858834297 25.0439097,1.2745709 24.9420391,1.68954747 C24.8401686,2.10452404 24.4311658,2.36065427 24.1939746,2.30213193 L22.1033472,1.79063151 Z M15.7972548,6.01944038 C15.9963604,5.97034095 16.2068213,6.00233467 16.3823296,6.10838198 C16.557838,6.2144293 16.6840141,6.38584155 16.7330956,6.58490296 C16.8352886,6.99937008 16.5820657,7.41818743 16.1674959,7.52037508 C15.7529262,7.62256273 15.3339869,7.36942724 15.2317513,6.95497063 C15.1295158,6.54051402 15.3826956,6.12167064 15.7972548,6.01944038 Z M13.5044067,8.52754054 C13.1263179,8.72584444 12.6590174,8.58021255 12.4606135,8.20224755 C12.3152963,7.92541422 12.3510972,7.58832466 12.5513216,7.34817086 C12.751546,7.10801706 13.0767607,7.01209606 13.3753112,7.10513785 C13.6738617,7.19817963 13.8869501,7.46186011 13.9152087,7.7732195 C13.9434673,8.08457889 13.7813307,8.38229659 13.5044067,8.52754054 Z M11.1537813,10.1509654 C11.0002672,10.2869774 10.798982,10.3564265 10.5942344,10.3440251 C10.3894868,10.3316237 10.1980604,10.2383883 10.0620937,10.0848427 C9.85431078,9.85065983 9.80815098,9.51437945 9.94515031,9.23289436 C10.0821496,8.95140927 10.3753101,8.78019079 10.6878567,8.79912148 C11.0004032,8.81805217 11.2707434,9.02340145 11.3727491,9.31936287 C11.4747547,9.61532429 11.3883239,9.94357378 11.1537813,10.1509654 Z M9.06543459,11.2104477 C9.23422436,11.3269332 9.34980134,11.5056949 9.38672907,11.7073905 C9.42365681,11.909086 9.37890894,12.1171858 9.26233368,12.2858906 C9.01965421,12.6370904 8.53815974,12.7251413 8.1868401,12.4825662 C7.83552047,12.239991 7.74739015,11.7586322 7.9899872,11.4073755 C8.23258425,11.0561188 8.71405804,10.967955 9.06543459,11.2104477 Z M7.48872142,13.8143117 C7.88796651,13.9654697 8.08910242,14.4115282 7.93801626,14.8107115 C7.82734054,15.1031267 7.55136081,15.3000889 7.23877961,15.3097452 C6.92619841,15.3194015 6.63858134,15.13985 6.51005797,14.8548241 C6.3815346,14.5697982 6.43741874,14.2354363 6.65164895,14.0076673 C6.86587915,13.7798983 7.19626091,13.7035833 7.48872142,13.8143117 Z M5.72119099,17.3940546 C5.7457153,17.1904895 5.85021341,17.0050329 6.01164728,16.8785712 C6.17308115,16.7521096 6.37819521,16.6950269 6.58176925,16.7199077 C6.89221932,16.7575408 7.14942131,16.9784376 7.23343386,17.279587 C7.31744641,17.5807363 7.21172323,17.9028267 6.96556635,18.0956574 C6.71940948,18.2884881 6.38129956,18.314081 6.10890786,18.1605013 C5.83651616,18.0069216 5.68349028,17.7044169 5.72119099,17.3940546 Z M6.58633062,21.2960504 C6.38278917,21.3209501 6.17769057,21.2639917 6.01615699,21.1377061 C5.85462341,21.0114206 5.74988776,20.8261533 5.72499213,20.6226636 C5.67315206,20.1989375 5.97471047,19.8134244 6.39854589,19.7615905 C6.82238131,19.7097566 7.20799999,20.0112299 7.25985468,20.4349541 C7.31170936,20.8586784 7.01016425,21.2442019 6.58633062,21.2960504 Z M7.49328279,24.1970863 C7.09400439,24.3482602 6.64769378,24.1476087 6.49586347,23.7486684 C6.34442337,23.3495743 6.54523529,22.9033058 6.94441207,22.7518494 C7.34358885,22.600393 7.79000158,22.8010904 7.94155309,23.2001422 C8.0931046,23.5991939 7.89241727,24.0455185 7.49328279,24.1970863 Z M9.07227665,26.7994302 C8.90362061,26.9160504 8.69553093,26.9609081 8.49379062,26.9241339 C8.2920503,26.8873597 8.11318713,26.7719664 7.99655382,26.6033424 C7.75369956,26.2522328 7.84152324,25.7707823 8.19271592,25.5279792 C8.5439086,25.2851762 9.02548745,25.3729607 9.2683656,25.7240537 C9.51124375,26.0751468 9.42345281,26.5566033 9.07227665,26.7994302 Z M11.2282837,28.948796 C11.0924225,29.1024502 10.9010516,29.1958279 10.6963013,29.208372 C10.491551,29.2209161 10.2902072,29.1515982 10.136596,29.0156787 C9.81689073,28.7327945 9.78705227,28.2443849 10.0699451,27.9247053 C10.3528379,27.6050256 10.8413685,27.5750956 11.1611889,27.8578498 C11.4810092,28.140604 11.5110464,28.6290014 11.2282837,28.948796 Z M12.792073,30.8450718 C12.6103872,30.7499513 12.473949,30.5865593 12.4127836,30.3908524 C12.3516182,30.1951455 12.3707379,29.9831614 12.4659351,29.8015501 C12.6641225,29.4234605 13.1313534,29.277559 13.5095603,29.4756588 C13.8877673,29.6737586 14.0337513,30.140854 13.835636,30.5189814 C13.6375207,30.8971089 13.1703177,31.0430995 12.792073,30.8450718 Z M16.1773689,30.4848174 C16.3765967,30.5335606 16.5482868,30.6594496 16.654651,30.8347765 C16.7610151,31.0101034 16.7933357,31.2204985 16.7444991,31.4196547 C16.6428386,31.8342267 16.224288,32.0879361 15.8095944,31.9863581 C15.3949008,31.8847801 15.1410689,31.4663726 15.2426173,31.0517731 C15.3441657,30.6371737 15.7626478,30.3833514 16.1773689,30.4848174 Z M19.0107392,32.3719743 C18.8056248,32.3723764 18.6087731,32.2911991 18.4635925,32.1463414 C18.318412,32.0014838 18.2368265,31.8048433 18.2368265,31.5997819 C18.2364073,31.1728932 18.5822187,30.8264914 19.0092185,30.8260714 C19.4362182,30.8256521 19.7827103,31.1713734 19.7831306,31.5982621 C19.7835501,32.0251508 19.4377389,32.3715528 19.0107392,32.3719743 Z M22.2120599,31.9805571 C22.0129515,32.0299087 21.802387,31.9981301 21.6267234,31.8922177 C21.4510598,31.7863052 21.3246985,31.614942 21.2754588,31.4158546 C21.1729794,31.0015071 21.4258341,30.5825448 21.840268,30.4800056 C22.254702,30.3774664 22.673826,30.6301679 22.7764784,31.0444726 C22.8791307,31.4587773 22.626451,31.877845 22.2120599,31.9805571 Z M25.2271247,30.8344314 C25.045577,30.9299589 24.8334955,30.9494321 24.6375801,30.888563 C24.4416647,30.8276939 24.2779808,30.6914739 24.1825712,30.5098984 C23.98403,30.1320512 24.1293987,29.6648377 24.5072922,29.4662491 C24.8851857,29.2676604 25.3525588,29.4128688 25.5512983,29.7906119 C25.7500377,30.168355 25.604914,30.6356446 25.2271247,30.8344314 Z M27.8795607,28.9997181 C27.7262409,29.1359154 27.5250728,29.2056273 27.3203304,29.1935113 C27.1155879,29.1813953 26.9240507,29.0884443 26.7878731,28.9351155 C26.5043883,28.6159266 26.5333697,28.1274302 26.8526077,27.8439809 C27.1718456,27.5605317 27.6604727,27.5894471 27.9440339,27.9085681 C28.2275952,28.227689 28.1987308,28.7161924 27.8795607,28.9997181 Z M28.937038,26.7827095 C28.5854088,26.5403724 28.4966089,26.0590733 28.7386185,25.7072666 C28.9808771,25.355838 29.4621961,25.2672224 29.8137852,25.5093179 C30.1653743,25.7514133 30.25415,26.2325818 30.0120917,26.5841484 C29.7700334,26.935715 29.288765,27.0246047 28.937038,26.7827095 Z M30.5137512,24.1773255 C30.1151265,24.0255085 29.914275,23.5800806 30.0644564,23.1809257 C30.1751321,22.8885105 30.4511118,22.6915483 30.763693,22.681892 C31.0762742,22.6722357 31.3638913,22.8517872 31.4924147,23.1368131 C31.620938,23.421839 31.5650539,23.7562009 31.3508237,23.9839699 C31.1365935,24.2117389 30.8062117,24.2880538 30.5137512,24.1773255 Z M32.2820419,20.5953025 C32.2576881,20.7989097 32.1534057,20.9844982 31.9921477,21.1112188 C31.8308898,21.2379394 31.6258734,21.2954058 31.4222238,21.2709694 C30.9983102,21.220103 30.6958852,20.8353378 30.7467031,20.4115271 C30.797521,19.9877164 31.1823422,19.685314 31.6062707,19.7360569 C32.0301991,19.7867998 32.3327362,20.1714769 32.2820419,20.5953025 Z M30.739539,17.5597412 C30.7144162,17.3561315 30.771289,17.1508891 30.8976286,16.9892278 C31.0239683,16.8275666 31.2094096,16.7227494 31.4131011,16.6978668 C31.8368341,16.6461044 32.2223452,16.9474653 32.2742832,17.3710683 C32.3262211,17.7946713 32.0249293,18.1801973 31.601236,18.2322838 C31.1775427,18.2843703 30.7918011,17.9833044 30.739539,17.5597412 Z M30.5008273,13.7937908 C30.8998921,13.6425382 31.3461111,13.8428085 31.4982466,14.2414487 C31.6094363,14.5336595 31.5336015,14.864059 31.306106,15.0785737 C31.0786105,15.2930884 30.7442589,15.3494703 30.4589677,15.221427 C30.1736764,15.0933837 29.9936329,14.806133 30.0027958,14.4936271 C30.0119588,14.1811213 30.2085237,13.9049073 30.5008273,13.7937908 Z M28.9195528,11.192967 C29.088052,11.0760703 29.296137,11.030971 29.4979306,11.0676123 C29.6997241,11.1042536 29.8786557,11.2196267 29.9952756,11.3882948 C30.1733465,11.6452985 30.1790215,11.984237 30.0096544,12.2470551 C29.8402872,12.5098731 29.5292342,12.6448096 29.2215468,12.5889403 C28.9138595,12.533071 28.6701358,12.2973991 28.6040301,11.9918244 C28.5379244,11.6862496 28.662456,11.3709537 28.9195528,11.192967 Z M26.7612651,9.04588124 C26.8970205,8.89211854 27.0883361,8.79859843 27.2930891,8.78591161 C27.4978421,8.77322479 27.6992445,8.84241147 27.8529527,8.97823854 C28.1728357,9.26090894 28.2029984,9.74928655 27.9203286,10.0691519 C27.6376588,10.3890172 27.1491611,10.4192853 26.829147,10.1367632 C26.509133,9.85424114 26.4787437,9.36587757 26.7612651,9.04588124 Z M24.4790602,8.52070027 C24.2972423,8.42571232 24.1606391,8.26237753 24.0993273,8.06665821 C24.0380154,7.87093888 24.0570219,7.65888247 24.1521621,7.4771786 C24.3501578,7.0990357 24.8172562,6.95290644 25.1955438,7.15076219 C25.5738314,7.34861794 25.7201079,7.81556068 25.5222891,8.1937961 C25.3244703,8.57203153 24.8574403,8.71837914 24.4790602,8.52070027 Z M21.8106594,7.51366005 C21.3961523,7.41214373 21.1423113,6.99406144 21.2435292,6.57958275 C21.3177097,6.27582008 21.5676444,6.04666016 21.8767545,5.99899173 C22.1858646,5.9513233 22.4932537,6.0945373 22.655544,6.36183339 C22.8178343,6.62912948 22.8030537,6.96784881 22.6180965,7.22000005 C22.4331392,7.47215129 22.1144429,7.58805922 21.8106594,7.51366005 Z M16.4692965,8.75022943 C16.6684021,8.70113 16.8788629,8.73312373 17.0543713,8.83917104 C17.2298796,8.94521835 17.3560558,9.1166306 17.4051373,9.31569202 C17.5073303,9.73015913 17.2541073,10.1489765 16.8395376,10.2511641 C16.4249679,10.3533518 16.0060285,10.1002163 15.903793,9.68575968 C15.8015574,9.27130307 16.0547373,8.85245969 16.4692965,8.75022943 Z M15.1358563,9.97767845 C15.3342748,10.3558921 15.1886386,10.8233036 14.8104787,11.0219602 C14.5333378,11.167549 14.1957576,11.1318668 13.9551972,10.931557 C13.7146368,10.7312472 13.6184874,10.4057716 13.7115965,10.1069431 C13.8047056,9.80811464 14.0687302,9.59480376 14.3805203,9.56650595 C14.6923103,9.53820814 14.990442,9.70049818 15.1358563,9.97767845 Z M11.9307345,12.1893668 C11.7944022,12.0360775 11.724677,11.8348585 11.7369426,11.6301048 C11.7492082,11.4253512 11.8424565,11.2338899 11.9961141,11.0979632 C12.3155881,10.8147924 12.8041791,10.844118 13.0874706,11.1634672 C13.3707621,11.4828165 13.3415008,11.9712846 13.0221102,12.2545494 C12.7027196,12.5378143 12.2141201,12.5086325 11.9307345,12.1893668 Z M11.3841304,12.8065114 C11.7352423,13.0493309 11.8233457,13.5305428 11.5810295,13.8819544 C11.33835,14.2331541 10.8568556,14.3212051 10.5055359,14.0786299 C10.1542163,13.8360548 10.066086,13.3546959 10.308683,13.0034392 C10.5512801,12.6521825 11.0327539,12.5640187 11.3841304,12.8065114 Z M9.12549262,15.2568493 C9.2773255,14.8583189 9.72309231,14.657759 10.1221517,14.8084314 C10.414642,14.9191945 10.6115684,15.1952256 10.6210749,15.5077703 C10.6305813,15.820315 10.4507948,16.1077984 10.1655767,16.236124 C9.88035854,16.3644497 9.54590007,16.3083359 9.31820905,16.0939571 C9.09051804,15.8795782 9.0144523,15.5491693 9.12549262,15.2568493 Z M9.37712813,17.053561 C9.8008463,17.1057974 10.1024221,17.4909118 10.0514505,17.9146754 C9.99964936,18.3383193 9.6141993,18.6398127 9.19042945,18.5881534 C8.7666596,18.5364941 8.46497103,18.1512356 8.51651541,17.7275604 C8.56805978,17.3038852 8.95332706,17.0021584 9.37712813,17.053561 Z M9.19087224,19.4126952 C9.61471179,19.3613169 9.99997989,19.6631224 10.0514505,20.0868422 C10.0891512,20.3972044 9.93612532,20.6997092 9.66373363,20.8532888 C9.39134193,21.0068685 9.053232,20.9812757 8.80707513,20.788445 C8.56091826,20.5956143 8.45519508,20.2735238 8.53920763,19.9723745 C8.62322017,19.6712252 8.88042217,19.4503284 9.19087224,19.4126952 Z M10.1221517,23.1961263 C9.72307843,23.3472513 9.27699584,23.1465494 9.12549262,22.7477084 C9.0144523,22.4553884 9.09051804,22.1249795 9.31820905,21.9106006 C9.54590007,21.6962217 9.88035854,21.640108 10.1655767,21.7684337 C10.4507948,21.8967593 10.6305813,22.1842427 10.6210749,22.4967874 C10.6115684,22.8093321 10.414642,23.0853632 10.1221517,23.1961263 Z M11.5810295,24.1195632 C11.6976048,24.288268 11.7423526,24.4963678 11.7054249,24.6980633 C11.6684972,24.8997589 11.5529202,25.0785206 11.3841304,25.1950061 C11.0327539,25.4374989 10.5512801,25.349335 10.308683,24.9980783 C10.066086,24.6468216 10.1542163,24.1654628 10.5055359,23.9228876 C10.8568556,23.6803125 11.33835,23.7683634 11.5810295,24.1195632 Z M11.9961141,26.9027943 C11.8424565,26.7668677 11.7492082,26.5754063 11.7369426,26.3706527 C11.724677,26.1658991 11.7944022,25.96468 11.9307345,25.8113908 C12.1383368,25.57704 12.466736,25.4908474 12.7627113,25.5930276 C13.0586866,25.6952078 13.2639089,25.9656237 13.282628,26.2781079 C13.3013471,26.590592 13.1298739,26.8835619 12.8482124,27.0203269 C12.566551,27.1570919 12.2302094,27.1106993 11.9961141,26.9027943 Z M15.1358563,28.0230791 C15.0405791,28.2047866 14.8769525,28.3411714 14.6810247,28.4021869 C14.4850969,28.4632024 14.2729432,28.4438424 14.0913028,28.3483721 C13.7134596,28.1497773 13.5681074,27.6826195 13.7666027,27.3047951 C13.9650981,26.9269708 14.4323193,26.7814696 14.8103213,26.9797621 C15.1883234,27.1780547 15.3340493,27.6450961 15.1358563,28.0230791 Z M16.8418083,27.7502282 C17.0410619,27.7991298 17.2127028,27.9252038 17.318932,28.1006858 C17.4251612,28.2761679 17.4572667,28.4866666 17.4081782,28.6858255 C17.3060361,29.1002306 16.8872601,29.3534408 16.4727175,29.251446 C16.0581749,29.1494511 15.8047768,28.7308579 15.9066774,28.3163935 C16.008578,27.901929 16.4272063,27.6484748 16.8418083,27.7502282 Z M18.9993357,29.5583408 C18.7941513,29.5583408 18.5973817,29.4768005 18.4523657,29.3316797 C18.3073497,29.1865589 18.225982,28.9897605 18.2261833,28.7846295 C18.2261833,28.4716235 18.4148239,28.1894525 18.7041084,28.0697414 C18.993393,27.9500303 19.326326,28.0163652 19.5476034,28.2378026 C19.7688808,28.4592399 19.8349057,28.7921514 19.7148792,29.0812428 C19.5948527,29.3703343 19.312423,29.5586479 18.9993357,29.5583408 Z M21.5263341,29.2512881 C21.3272284,29.3003876 21.1167676,29.2683938 20.9412593,29.1623465 C20.7657509,29.0562992 20.6395747,28.884887 20.5904932,28.6858255 C20.4883003,28.2713584 20.7415232,27.8525411 21.1560929,27.7503534 C21.5706627,27.6481658 21.989602,27.9013013 22.0918376,28.3157579 C22.1940731,28.7302145 21.9408933,29.1490579 21.5263341,29.2512881 Z M22.8628152,28.0230791 C22.7673533,27.8415995 22.7480085,27.6296137 22.8090458,27.4338601 C22.8700832,27.2381066 23.0064905,27.0746602 23.1881928,26.9795574 C23.4650982,26.834278 23.8022755,26.8700696 24.0424918,27.070242 C24.2827081,27.2704143 24.378654,27.5955444 24.285588,27.8940172 C24.192522,28.19249 23.9287729,28.4055229 23.6173325,28.4337742 C23.3058921,28.4620254 23.0080969,28.299931 22.8628152,28.0230791 Z M26.067937,25.8113908 C26.3508198,26.1311412 26.3212233,26.6195253 26.0017972,26.9027943 C25.6821211,27.1857245 25.1935632,27.1560471 24.9105035,26.8365038 C24.6274437,26.5169605 24.6570433,26.0285245 24.9766201,25.7454824 C25.296197,25.4624403 25.7847653,25.4919466 26.067937,25.8113908 Z M26.614541,25.1950061 C26.2631706,24.9524277 26.174719,24.4711723 26.4168817,24.1195632 C26.6593507,23.7682488 27.1407576,23.6799154 27.4922121,23.9222507 C27.8436666,24.164586 27.9321197,24.6458498 27.689792,24.9972616 C27.4474643,25.3486734 26.966093,25.4372002 26.614541,25.1950061 Z M28.8731789,22.7446683 C28.8010565,22.937683 28.6548361,23.0939212 28.4669887,23.1786875 C28.2791412,23.2634537 28.0652159,23.2697313 27.8727186,23.1961263 C27.4746259,23.043908 27.2748384,22.5983141 27.4260621,22.199931 C27.5772858,21.801548 28.0224754,21.600656 28.4213535,21.7508054 C28.8202316,21.9009549 29.0223311,22.3455055 28.8731789,22.7446683 Z M28.8077992,19.4126952 C29.0114173,19.4372132 29.1969222,19.5416841 29.3234168,19.703076 C29.4499113,19.8644678 29.5070089,20.0695285 29.4821216,20.2730496 C29.4444787,20.5834189 29.2235244,20.840554 28.9222967,20.9245447 C28.621069,21.0085353 28.2988947,20.9028397 28.1060138,20.6567468 C27.913133,20.410654 27.8875334,20.0726321 28.0411531,19.8003112 C28.1947727,19.5279904 28.4973562,19.3750043 28.8077992,19.4126952 Z M29.4821216,17.7277079 C29.5335294,18.1515931 29.2317402,18.5369801 28.8077992,18.5888223 C28.3839982,18.6402249 27.9987309,18.3384982 27.9471865,17.9148229 C27.8956421,17.4911477 28.1973307,17.1058893 28.6211006,17.05423 C29.0448704,17.0025707 29.4303205,17.304064 29.4821216,17.7277079 Z M27.8727186,14.8084314 C28.0644472,14.735408 28.2773588,14.7416473 28.4644798,14.8257728 C28.6516008,14.9098983 28.7975538,15.0649967 28.8701379,15.2568493 C29.0215781,15.6559433 28.8207661,16.1022119 28.4215893,16.2536683 C28.0224126,16.4051247 27.5759998,16.2044273 27.4244483,15.8053755 C27.2728968,15.4063237 27.4735841,14.9599991 27.8727186,14.8084314 Z M26.4168817,13.8819544 C26.174719,13.5303452 26.2631706,13.0490898 26.614541,12.8065114 C26.872192,12.6286349 27.2116667,12.6234956 27.4745868,12.7934912 C27.7375068,12.9634869 27.8720614,13.2751181 27.8154753,13.5829966 C27.7588893,13.8908752 27.5223135,14.1343306 27.2161199,14.1997813 C26.9099264,14.265232 26.5944534,14.1397803 26.4168817,13.8819544 Z M26.0017972,11.0979632 C26.3212233,11.3812322 26.3508198,11.8696164 26.067937,12.1893668 C25.7847653,12.5088109 25.296197,12.5383172 24.9766201,12.2552752 C24.6570433,11.9722331 24.6274437,11.4837971 24.9105035,11.1642538 C25.1935632,10.8447105 25.6821211,10.8150331 26.0017972,11.0979632 Z M22.8628152,9.97767845 C23.0615094,9.60006182 23.5284788,9.45453314 23.9066084,9.65238546 C24.1835324,9.79762941 24.3456689,10.0953471 24.3174104,10.4067065 C24.2891518,10.7180659 24.0760634,10.9817464 23.7775129,11.0747882 C23.4789624,11.1678299 23.1537477,11.0719089 22.9535233,10.8317551 C22.7532989,10.5916013 22.7174979,10.2545118 22.8628152,9.97767845 Z M21.156103,10.2512894 C20.9569898,10.2022206 20.7855329,10.0760773 20.679458,9.9006146 C20.5733831,9.72515191 20.541381,9.51474586 20.5904932,9.31569202 C20.6927501,8.90124066 21.1117025,8.6481267 21.526267,8.75033565 C21.9408314,8.85254461 22.1940328,9.27137498 22.0918186,9.68583684 C21.9896043,10.1002987 21.570678,10.3534557 21.156103,10.2512894 Z" id="logo" fill="#262529" fill-rule="nonzero"></path>
    </g>
</svg>